<svg width="14" height="15" viewBox="0 0 14 15" fill="none" xmlns="http://www.w3.org/2000/svg">
<g clip-path="url(#clip0_3000_4)">
<path d="M0.409547 10.8561H11.1288C11.2249 10.8561 11.3178 10.8225 11.3915 10.7612C11.4945 10.675 13.8431 8.65458 13.9863 4.29333H2.47404C2.33138 8.25217 0.168446 10.1129 0.145969 10.1315C0.0141932 10.2429 -0.0342895 10.4247 0.0249945 10.5865C0.0838682 10.748 0.237301 10.8561 0.409547 10.8561Z" fill="#437FC8"/>
<path d="M13.5899 1.83231H11.539V1.42214C11.539 1.19244 11.3585 1.01196 11.1288 1.01196C10.8991 1.01196 10.7186 1.19244 10.7186 1.42214V1.83231H8.64041V1.42214C8.64041 1.19244 8.45994 1.01196 8.23024 1.01196C8.00054 1.01196 7.82006 1.19244 7.82006 1.42214V1.83231H5.76919V1.42214C5.76919 1.19244 5.58871 1.01196 5.35902 1.01196C5.12932 1.01196 4.94884 1.19244 4.94884 1.42214V1.83231H2.89797C2.66827 1.83231 2.48779 2.01279 2.48779 2.24249V3.47301H14V2.24249C14 2.01279 13.8196 1.83231 13.5899 1.83231Z" fill="#437FC8"/>
<path d="M11.9186 11.3901C11.6958 11.5756 11.4163 11.6765 11.1291 11.6765H2.48804V12.907C2.48804 13.1338 2.67149 13.3172 2.89821 13.3172H13.5901C13.8168 13.3172 14.0003 13.1338 14.0003 12.907V8.30908C13.2095 10.2492 12.1059 11.2333 11.9186 11.3901Z" fill="#437FC8"/>
</g>
<defs>
<clipPath id="clip0_3000_4">
<rect width="14" height="14" fill="white" transform="translate(0 0.164551)"/>
</clipPath>
</defs>
</svg>
