<svg width="18" height="19" viewBox="0 0 18 19" fill="none" xmlns="http://www.w3.org/2000/svg">
<g clip-path="url(#clip0_31_35)">
<path d="M17.7221 1.88736C17.5022 1.60353 17.1729 1.44727 16.7947 1.44727C16.5891 1.44727 16.3713 1.49293 16.1475 1.58324L0.910795 7.72266C0.102201 8.04839 -0.00670086 8.53719 0.000302909 8.79956C0.00730668 9.06194 0.142301 9.54349 0.9671 9.8205C0.972043 9.8221 0.976987 9.82369 0.981931 9.82514L4.14242 10.7798L5.85162 15.9389C6.08467 16.6423 6.60775 17.0792 7.21695 17.0792C7.60106 17.0792 7.97885 16.9093 8.30954 16.588L10.2644 14.6881L13.0998 17.098C13.1001 17.0983 13.1005 17.0984 13.1008 17.0987L13.1277 17.1216C13.1302 17.1237 13.1328 17.1258 13.1353 17.1279C13.4504 17.3859 13.7945 17.5221 14.1305 17.5223H14.1306C14.7872 17.5223 15.31 17.0093 15.4623 16.2155L17.9588 3.20344C18.0591 2.68115 17.975 2.21381 17.7221 1.88736ZM5.19972 10.5985L11.2973 7.3104L7.50053 11.5688C7.43832 11.6386 7.39424 11.724 7.37254 11.8169L6.64044 14.9471L5.19972 10.5985ZM7.59501 15.769C7.56974 15.7935 7.54434 15.8154 7.51893 15.8356L8.19816 12.9317L9.43371 13.982L7.59501 15.769ZM16.9251 2.98238L14.4286 15.9946C14.4046 16.1191 14.3278 16.4089 14.1305 16.4089C14.033 16.4089 13.9105 16.3528 13.7851 16.2509L10.5722 13.5201C10.5718 13.5197 10.5712 13.5193 10.5707 13.519L8.6589 11.894L14.1495 5.73572C14.3252 5.53857 14.3412 5.23663 14.1872 5.02006C14.0331 4.80349 13.7539 4.73536 13.5256 4.85857L4.49508 9.72831L1.29161 8.76086L16.5236 2.62331C16.6523 2.57142 16.7421 2.56055 16.7947 2.56055C16.827 2.56055 16.8844 2.56461 16.9056 2.59229C16.9337 2.62839 16.9694 2.75146 16.9251 2.98238Z" fill="#437FC8"/>
</g>
<defs>
<clipPath id="clip0_31_35">
<rect width="18" height="19" fill="white"/>
</clipPath>
</defs>
</svg>
