<svg width="19" height="19" viewBox="0 0 19 19" fill="none" xmlns="http://www.w3.org/2000/svg">
<path d="M18.2016 6.70592C18.2017 4.92149 17.5023 3.23939 16.2323 1.96941C14.9623 0.699425 13.2802 0 11.4956 0H7.52233C7.52219 0 7.52219 0 7.52219 0C5.73789 0 4.05565 0.699425 2.78581 1.96926C1.51583 3.23939 0.816406 4.92149 0.816406 6.70592V9.8292C0.816406 11.2112 1.23795 12.5405 2.03551 13.6736C2.73914 14.6733 3.68542 15.4542 4.7887 15.9492V17.7432C4.7887 18.6708 5.30809 19 5.75282 19C6.07057 19 6.38832 18.8432 6.69766 18.534L8.69635 16.5353L11.4958 16.5351C13.2802 16.5351 14.9623 15.8357 16.2323 14.5659C17.5023 13.2959 18.2017 11.6136 18.2017 9.8292L18.2016 6.70592ZM11.4958 15.4218L8.46587 15.422C8.31815 15.422 8.17667 15.4806 8.0723 15.5849L5.91054 17.7467C5.90778 17.7496 5.90488 17.7523 5.90199 17.7551C5.90199 17.7512 5.90199 17.7471 5.90199 17.7432V15.5777C5.90199 15.3468 5.75949 15.1399 5.54379 15.0576C3.38217 14.2327 1.92983 12.1316 1.92983 9.8292V6.70592C1.92983 5.2188 2.51344 3.81618 3.57308 2.75639C4.63273 1.69688 6.0352 1.11328 7.52233 1.11328H11.4956C12.9828 1.11328 14.3854 1.69688 15.445 2.75653C16.5048 3.81632 17.0884 5.21894 17.0883 6.70592L17.0884 9.8292C17.0883 12.913 14.5795 15.4218 11.4958 15.4218Z" fill="#437FC8"/>
<path d="M10.989 9.1043C10.7717 8.88686 10.4193 8.88686 10.2019 9.1043L9.75224 9.55382L8.00984 7.81156L8.4595 7.36205C8.56387 7.25768 8.62258 7.11605 8.62258 6.96834C8.62258 6.82077 8.56387 6.67915 8.4595 6.57478L6.35152 4.46679C6.24715 4.36242 6.10567 4.30371 5.95795 4.30371C5.81039 4.30371 5.66876 4.36242 5.56439 4.46679L4.08871 5.94247C3.29072 6.74046 3.29072 8.03915 4.08886 8.83758L8.72623 13.4752C9.11182 13.8607 9.62598 14.0729 10.1738 14.0729C10.7217 14.0729 11.2359 13.8607 11.6215 13.4752L13.0972 11.9997C13.2015 11.8952 13.2602 11.7537 13.2602 11.606C13.2602 11.4584 13.2015 11.3168 13.0972 11.2124L10.989 9.1043ZM10.8342 12.6878C10.659 12.8631 10.4244 12.9596 10.1738 12.9596C9.92315 12.9596 9.68861 12.8631 9.51335 12.6878L4.87613 8.05031C4.51199 7.68617 4.51185 7.09358 4.87598 6.72959L5.95795 5.64748L7.27867 6.96834L6.82901 7.41785C6.72464 7.52222 6.66593 7.66385 6.66593 7.81142C6.66593 7.95913 6.72464 8.10061 6.82901 8.20512L9.35854 10.7347C9.57597 10.9519 9.92837 10.9521 10.1458 10.7347L10.5955 10.2851L11.9162 11.6059L10.8342 12.6878Z" fill="#437FC8"/>
<path d="M9.64355 2.4624C9.3361 2.4624 9.08691 2.71159 9.08691 3.01904C9.08691 3.32635 9.3361 3.57568 9.64355 3.57568C10.9174 3.57568 12.1152 4.07173 13.016 4.97265C13.9169 5.87342 14.413 7.07107 14.413 8.34511C14.413 8.65242 14.6622 8.90175 14.9696 8.90175C15.2769 8.90175 15.5263 8.65257 15.5263 8.34511C15.5263 6.77376 14.9144 5.29649 13.8033 4.18538C12.6922 3.07427 11.2149 2.4624 9.64355 2.4624Z" fill="#437FC8"/>
<path d="M12.0281 8.34487C12.0281 8.65218 12.2774 8.90151 12.5848 8.90151C12.8922 8.90151 13.1414 8.65218 13.1414 8.34487C13.1414 6.4162 11.5722 4.84717 9.64355 4.84717C9.3361 4.84717 9.08691 5.09635 9.08691 5.40381C9.08691 5.71127 9.3361 5.96045 9.64355 5.96045C10.9585 5.96045 12.0281 7.0301 12.0281 8.34487Z" fill="#437FC8"/>
</svg>
