<svg width="16" height="16" viewBox="0 0 16 16" fill="none" xmlns="http://www.w3.org/2000/svg">
<g clip-path="url(#clip0_23_4)">
<path d="M9.74729 7.51559L15.588 1.67471C15.9681 1.29478 15.9681 0.680494 15.588 0.300569C15.2081 -0.0793563 14.5938 -0.0793563 14.2139 0.300569L8.37297 6.14145L2.53226 0.300569C2.15216 -0.0793563 1.53805 -0.0793563 1.15812 0.300569C0.778021 0.680494 0.778021 1.29478 1.15812 1.67471L6.99883 7.51559L1.15812 13.3565C0.778021 13.7364 0.778021 14.3507 1.15812 14.7306C1.34746 14.9201 1.59642 15.0153 1.84519 15.0153C2.09397 15.0153 2.34274 14.9201 2.53226 14.7306L8.37297 8.88972L14.2139 14.7306C14.4034 14.9201 14.6522 15.0153 14.9009 15.0153C15.1497 15.0153 15.3985 14.9201 15.588 14.7306C15.9681 14.3507 15.9681 13.7364 15.588 13.3565L9.74729 7.51559Z" fill="#999999"/>
</g>
<defs>
<clipPath id="clip0_23_4">
<rect width="15" height="15" fill="white" transform="translate(0.873047 0.00292969)"/>
</clipPath>
</defs>
</svg>
