<svg width="42" height="42" viewBox="0 0 42 42" fill="none" xmlns="http://www.w3.org/2000/svg">
<g clip-path="url(#clip0_19_1056)">
<path d="M12.6086 27.6538H35.7507C38.3748 27.6538 40.5155 25.5131 40.5155 22.889V13.1523C40.5155 13.1436 40.5155 13.1264 40.5155 13.1177C40.5155 13.0918 40.5155 13.0746 40.5155 13.0487C40.5155 13.0314 40.5155 13.0142 40.5069 12.9969C40.5069 12.9796 40.4982 12.9537 40.4982 12.9365C40.4982 12.9192 40.4896 12.9019 40.4896 12.8847C40.481 12.8674 40.481 12.8502 40.4723 12.8243C40.4637 12.807 40.4637 12.7897 40.4551 12.7725C40.4464 12.7552 40.4464 12.7379 40.4378 12.7207C40.4292 12.7034 40.4205 12.6862 40.4119 12.6603C40.4033 12.643 40.3946 12.6257 40.386 12.6171C40.3774 12.5998 40.3687 12.5826 40.3601 12.5653C40.3515 12.548 40.3428 12.5394 40.3342 12.5221C40.3256 12.5049 40.3083 12.4876 40.2997 12.4704C40.2911 12.4531 40.2824 12.4445 40.2652 12.4272C40.2565 12.4099 40.2393 12.4013 40.2306 12.384C40.222 12.3668 40.2047 12.3581 40.1961 12.3409C40.1875 12.3236 40.1702 12.315 40.1616 12.3063C40.1443 12.2891 40.1357 12.2805 40.1184 12.2632C40.1012 12.2546 40.0925 12.2373 40.0753 12.2287C40.058 12.22 40.0407 12.2028 40.0235 12.1941C40.0062 12.1855 39.9976 12.1769 39.9803 12.1682C39.963 12.1596 39.9458 12.151 39.9285 12.1337C39.9113 12.1251 39.894 12.1164 39.8767 12.1078C39.8595 12.0992 39.8422 12.0906 39.8249 12.0819C39.8077 12.0733 39.7904 12.0647 39.7731 12.056C39.7559 12.0474 39.7386 12.0474 39.7214 12.0388C39.7041 12.0301 39.6782 12.0215 39.6609 12.0215C39.6437 12.0215 39.6264 12.0129 39.6178 12.0129C39.5919 12.0042 39.5746 12.0042 39.5487 12.0042C39.5401 12.0042 39.5314 11.9956 39.5142 11.9956L10.1831 7.94725V3.85575C10.1831 3.81259 10.1831 3.76943 10.1745 3.7349C10.1745 3.72627 10.1745 3.71764 10.1658 3.70037C10.1658 3.67448 10.1572 3.64858 10.1572 3.62269C10.1486 3.59679 10.1486 3.57953 10.1399 3.55363C10.1399 3.53637 10.1313 3.52774 10.1313 3.51047C10.1227 3.48458 10.114 3.45868 10.1054 3.43279C10.1054 3.42415 10.0968 3.40689 10.0968 3.39826C10.0881 3.37236 10.0795 3.3551 10.0622 3.3292C10.0536 3.32057 10.0536 3.30331 10.045 3.29468C10.0363 3.27741 10.0277 3.26015 10.0105 3.24289C10.0018 3.22562 9.99319 3.21699 9.98456 3.19973C9.97593 3.18246 9.96729 3.17383 9.95866 3.15657C9.95003 3.1393 9.93277 3.12204 9.92414 3.10478C9.9155 3.09614 9.90687 3.08751 9.89824 3.07888C9.88098 3.06162 9.86371 3.04435 9.84645 3.02709C9.83782 3.01846 9.82918 3.00982 9.82055 3.00119C9.80329 2.98393 9.78603 2.96667 9.76013 2.9494C9.7515 2.94077 9.73423 2.93214 9.7256 2.92351C9.70834 2.90624 9.69107 2.89761 9.67381 2.88035C9.64791 2.86308 9.62202 2.84582 9.60476 2.83719C9.59612 2.82856 9.58749 2.82856 9.57886 2.81992C9.54433 2.80266 9.50117 2.7854 9.46665 2.76813L3.10496 0.0922531C2.50936 -0.158071 1.82744 0.118149 1.57712 0.713748C1.32679 1.30935 1.60301 1.99126 2.19861 2.24159L7.84385 4.62398V9.90669V10.744V17.1661V22.9063V30.1571C7.84385 32.574 9.65655 34.5766 11.9958 34.8787C11.5728 35.5865 11.3225 36.4152 11.3225 37.2956C11.3225 39.8938 13.4373 42 16.0269 42C18.6164 42 20.7312 39.8852 20.7312 37.2956C20.7312 36.4324 20.4982 35.6124 20.0838 34.9218H30.5629C30.1486 35.621 29.9155 36.4324 29.9155 37.2956C29.9155 39.8938 32.0304 42 34.6199 42C37.2095 42 39.3243 39.8852 39.3243 37.2956C39.3243 34.706 37.2095 32.5912 34.6199 32.5912H12.6086C11.2621 32.5912 10.1745 31.495 10.1745 30.1571V26.9978C10.8823 27.4121 11.7196 27.6538 12.6086 27.6538ZM18.4093 37.287C18.4093 38.599 17.3389 39.6607 16.0355 39.6607C14.7321 39.6607 13.6617 38.5904 13.6617 37.287C13.6617 35.9836 14.7321 34.9132 16.0355 34.9132C17.3389 34.9132 18.4093 35.9749 18.4093 37.287ZM37.0023 37.287C37.0023 38.599 35.932 39.6607 34.6285 39.6607C33.3251 39.6607 32.2548 38.5904 32.2548 37.287C32.2548 35.9836 33.3251 34.9132 34.6285 34.9132C35.932 34.9132 37.0023 35.9749 37.0023 37.287ZM35.7507 25.3232H12.6086C11.2621 25.3232 10.1745 24.227 10.1745 22.889V17.1488V10.7267V10.2951L38.1849 14.1536V22.8804C38.1849 24.2356 37.0886 25.3232 35.7507 25.3232Z" fill="#595959"/>
</g>
<defs>
<clipPath id="clip0_19_1056">
<rect width="42" height="42" fill="white"/>
</clipPath>
</defs>
</svg>
