<svg width="21" height="21" viewBox="0 0 21 21" fill="none" xmlns="http://www.w3.org/2000/svg">
<g clip-path="url(#clip0_18_460)">
<path d="M20.8355 12.4084C20.8355 10.6197 19.5835 9.05902 17.7195 8.21436C17.8295 8.60436 17.8928 9.00702 17.9041 9.42036C18.0901 9.53102 18.2701 9.65036 18.4381 9.78036C19.3781 10.5057 19.8968 11.4384 19.8968 12.4084C19.8968 13.3777 19.3801 14.311 18.4381 15.035C17.4068 15.8304 16.0201 16.269 14.5341 16.269C13.5321 16.269 12.5755 16.069 11.7421 15.6964C11.2248 15.7984 10.6868 15.863 10.1328 15.8857C11.2695 16.7397 12.8215 17.267 14.5341 17.267C15.6335 17.267 16.6668 17.051 17.5661 16.669L19.8601 17.8397L19.3968 15.499C20.2948 14.659 20.8355 13.5824 20.8355 12.4084Z" fill="#6E6E6E"/>
<path d="M17.2514 8.76746C17.2388 8.35479 17.1768 7.95146 17.0674 7.56212C16.2668 4.71279 12.9788 2.57812 9.04478 2.57812C4.51078 2.57879 0.835449 5.41346 0.835449 8.91012C0.835449 10.4401 1.53878 11.8421 2.71012 12.9375L2.10612 15.9855L5.09478 14.4608C6.26678 14.9581 7.61278 15.2421 9.04478 15.2421C9.19078 15.2421 9.33612 15.2381 9.48012 15.2328C10.0328 15.2108 10.5714 15.1455 11.0901 15.0428C14.6341 14.3421 17.2541 11.8621 17.2541 8.91012C17.2535 8.86279 17.2528 8.81546 17.2514 8.76746ZM14.1321 12.3341C12.8874 13.2928 11.2454 13.8541 9.47012 13.9315C9.32945 13.9388 9.18745 13.9421 9.04412 13.9421C8.76945 13.9421 8.49812 13.9301 8.22945 13.9068C6.60412 13.7708 5.11012 13.2248 3.95745 12.3355C2.73278 11.3908 2.05812 10.1748 2.05812 8.91146C2.05812 7.64812 2.73278 6.43212 3.95745 5.48746C5.30078 4.45146 7.10745 3.88079 9.04412 3.88079C10.9814 3.88079 12.7888 4.45146 14.1308 5.48746C14.7388 5.95612 15.2101 6.49146 15.5328 7.06612C15.7368 7.43079 15.8801 7.81146 15.9594 8.20079C16.0068 8.43479 16.0308 8.67212 16.0308 8.91079C16.0308 10.1735 15.3568 11.3895 14.1321 12.3341Z" fill="#6E6E6E"/>
<path d="M11.9568 9.82673C12.4528 9.82673 12.8548 9.42447 12.8548 8.92826C12.8548 8.43205 12.4528 8.02979 11.9568 8.02979C11.4609 8.02979 11.0588 8.43205 11.0588 8.92826C11.0588 9.42447 11.4609 9.82673 11.9568 9.82673Z" fill="#6E6E6E"/>
<path d="M9.04473 9.82673C9.54068 9.82673 9.94273 9.42447 9.94273 8.92826C9.94273 8.43205 9.54068 8.02979 9.04473 8.02979C8.54878 8.02979 8.14673 8.43205 8.14673 8.92826C8.14673 9.42447 8.54878 9.82673 9.04473 9.82673Z" fill="#6E6E6E"/>
<path d="M6.1328 9.82758C6.62912 9.82758 7.03146 9.42502 7.03146 8.92844C7.03146 8.43186 6.62912 8.0293 6.1328 8.0293C5.63648 8.0293 5.23413 8.43186 5.23413 8.92844C5.23413 9.42502 5.63648 9.82758 6.1328 9.82758Z" fill="#6E6E6E"/>
</g>
<defs>
<clipPath id="clip0_18_460">
<rect width="20" height="20" fill="white" transform="translate(0.835449 0.208008)"/>
</clipPath>
</defs>
</svg>
