<svg width="46" height="46" viewBox="0 0 46 46" fill="none" xmlns="http://www.w3.org/2000/svg">
<path d="M39.9305 14.5509C39.9832 14.0766 39.9286 13.5964 39.7706 13.146C39.6127 12.6956 39.3556 12.2865 39.0182 11.9489C38.6808 11.6114 38.2718 11.354 37.8215 11.1958C37.3712 11.0376 36.8911 10.9827 36.4168 11.0351C36.4294 10.9197 36.4358 10.8037 36.4359 10.6876C36.4359 9.84186 36.0999 9.03072 35.5019 8.43266C34.9038 7.8346 34.0927 7.49861 33.2469 7.49861C33.1308 7.49878 33.0149 7.50519 32.8995 7.5178C32.9716 6.86147 32.8382 6.19893 32.5175 5.62173C32.1968 5.04453 31.7049 4.58116 31.1095 4.29565C30.5141 4.01014 29.8448 3.91657 29.194 4.02788C28.5431 4.1392 27.9429 4.44989 27.4763 4.91704L25.0713 7.32202C24.7131 6.84503 24.3218 6.39382 23.9003 5.97172L21.0878 3.15922C20.0236 2.09496 18.5801 1.49707 17.075 1.49707C15.5699 1.49707 14.1265 2.09496 13.0622 3.15922C12.9969 3.22451 12.9451 3.30202 12.9098 3.38733C12.8745 3.47263 12.8563 3.56406 12.8563 3.6564C12.8563 3.74873 12.8745 3.84017 12.9098 3.92547C12.9451 4.01078 12.9969 4.08829 13.0622 4.15357L14.0813 5.17269C15.3909 6.48556 16.331 8.12056 16.807 9.91277C17.2829 11.705 17.2778 13.591 16.7922 15.3806C16.5133 16.4034 16.3719 17.4588 16.3719 18.5189V23.0526L14.9656 24.4589L14.7597 24.253C14.6278 24.1211 14.449 24.047 14.2625 24.047C14.076 24.047 13.8972 24.1211 13.7653 24.253L11.45 26.5683L11.2441 26.3624C11.1122 26.2305 10.9334 26.1564 10.7469 26.1564C10.5604 26.1564 10.3816 26.2305 10.2497 26.3624L1.81223 34.7999L2.80657 35.7942L10.7469 27.8539L22.4088 39.5158L19.3903 42.5342L20.3847 43.5286L23.9003 40.0129C23.9656 39.9477 24.0174 39.8702 24.0528 39.7848C24.0881 39.6995 24.1063 39.6081 24.1063 39.5158C24.1063 39.4234 24.0881 39.332 24.0528 39.2467C24.0174 39.1614 23.9656 39.0839 23.9003 39.0186L22.9912 38.1095L25.3066 35.7942C25.3719 35.7289 25.4237 35.6514 25.459 35.5661C25.4943 35.4808 25.5125 35.3894 25.5125 35.297C25.5125 35.2047 25.4943 35.1133 25.459 35.028C25.4237 34.9426 25.3719 34.8651 25.3066 34.7999L23.6944 33.1876L25.1007 31.7814H30.4344C30.5267 31.7814 30.6182 31.7632 30.7035 31.7279C30.7888 31.6925 30.8663 31.6407 30.9316 31.5754L37.9628 24.5442L37.9352 24.5166C38.0699 24.4187 38.1966 24.3103 38.3144 24.1926L42.5331 19.9739C43.0004 19.5071 43.3111 18.9068 43.4224 18.2558C43.5336 17.6047 43.4399 16.9353 43.1541 16.3398C42.8684 15.7444 42.4047 15.2525 41.8272 14.932C41.2497 14.6115 40.587 14.4784 39.9305 14.5509ZM36.7625 12.4213C37.1151 12.4211 37.4599 12.5254 37.7532 12.7212C38.0464 12.917 38.275 13.1954 38.41 13.5212C38.5449 13.8469 38.5802 14.2054 38.5114 14.5512C38.4425 14.8971 38.2726 15.2147 38.0232 15.4639L33.8044 19.6827C33.4701 20.017 33.0166 20.2048 32.5438 20.2048C32.0709 20.2048 31.6175 20.017 31.2831 19.6827C30.9488 19.3483 30.761 18.8949 30.761 18.422C30.761 17.9492 30.9488 17.4957 31.2831 17.1614L35.5019 12.9426C35.6673 12.777 35.8639 12.6457 36.0802 12.5562C36.2965 12.4667 36.5284 12.4209 36.7625 12.4213ZM34.5075 9.42701C34.8414 9.76162 35.0289 10.215 35.0289 10.6876C35.0289 11.1603 34.8414 11.6137 34.5075 11.9483L30.2888 16.167C29.9544 16.5014 29.501 16.6892 29.0281 16.6892C28.5553 16.6892 28.1019 16.5014 27.7675 16.167C27.4332 15.8327 27.2453 15.3792 27.2453 14.9064C27.2453 14.4336 27.4332 13.9801 27.7675 13.6458L31.9863 9.42701C32.3209 9.09319 32.7742 8.90572 33.2469 8.90572C33.7196 8.90572 34.1729 9.09319 34.5075 9.42701ZM28.4706 5.91139C28.805 5.57704 29.2584 5.38921 29.7313 5.38921C30.2041 5.38921 30.6576 5.57704 30.9919 5.91139C31.3263 6.24573 31.5141 6.69919 31.5141 7.17202C31.5141 7.64485 31.3263 8.09832 30.9919 8.43266L26.7732 12.6514C26.6076 12.817 26.4111 12.9483 26.1948 13.0379C25.9785 13.1275 25.7466 13.1736 25.5125 13.1736C25.2784 13.1736 25.0466 13.1275 24.8303 13.0379C24.614 12.9483 24.4174 12.817 24.2519 12.6514C24.0863 12.4859 23.955 12.2893 23.8654 12.073C23.7758 11.8567 23.7297 11.6249 23.7297 11.3908C23.7297 11.1567 23.7758 10.9248 23.8654 10.7085C23.955 10.4922 24.0863 10.2957 24.2519 10.1301L28.4706 5.91139ZM21.9969 37.1152L12.4444 27.5626L14.2625 25.7445L23.8151 35.297L21.9969 37.1152ZM30.1431 30.3751H24.8094C24.7171 30.3751 24.6256 30.3933 24.5403 30.4287C24.455 30.464 24.3775 30.5158 24.3122 30.5811L22.7 32.1933L15.96 25.4533L17.5722 23.8411C17.6375 23.7758 17.6893 23.6983 17.7246 23.613C17.76 23.5277 17.7782 23.4362 17.7781 23.3439V18.5189C17.7782 17.5838 17.9028 16.6528 18.1489 15.7506C18.6994 13.7218 18.7052 11.5837 18.1657 9.55194C17.6261 7.52019 16.5603 5.66667 15.0757 4.17834L14.5947 3.69734C15.4175 3.11173 16.4211 2.83628 17.4275 2.91979C18.434 3.0033 19.3784 3.44037 20.0935 4.15357L22.906 6.96607C23.328 7.38842 23.716 7.84348 24.0663 8.327L23.2575 9.13579C22.7899 9.60223 22.4787 10.2025 22.3671 10.8535C22.2555 11.5045 22.349 12.1742 22.6346 12.7697C22.9202 13.3653 23.3839 13.8574 23.9614 14.178C24.5389 14.4985 25.2018 14.6316 25.8583 14.559C25.8457 14.6744 25.8393 14.7903 25.8391 14.9064C25.8379 15.4319 25.9673 15.9495 26.2156 16.4126V16.9658C26.2197 18.4503 25.9293 19.9209 25.3612 21.2925C24.7931 22.664 23.9586 23.9092 22.906 24.9561L23.9003 25.9504C26.097 23.766 27.4128 20.8494 27.5969 17.757C28.0409 17.9803 28.5311 18.0962 29.0281 18.0954C29.1442 18.0953 29.2602 18.0889 29.3756 18.0763C29.323 18.5507 29.3778 19.0308 29.5359 19.4812C29.6941 19.9316 29.9515 20.3406 30.2891 20.678C30.6267 21.0154 31.0359 21.2726 31.4864 21.4305C31.9368 21.5883 32.417 21.6428 32.8914 21.59C32.803 22.3852 33.0174 23.1845 33.4917 23.8288C33.9661 24.4732 34.6656 24.9153 35.4512 25.0671L30.1431 30.3751ZM41.5388 18.9795L37.32 23.1983C36.9857 23.5326 36.5322 23.7205 36.0594 23.7205C35.5866 23.7205 35.1331 23.5326 34.7988 23.1983C34.4644 22.8639 34.2766 22.4105 34.2766 21.9376C34.2766 21.4648 34.4644 21.0114 34.7988 20.677L39.0175 16.4583C39.3518 16.1239 39.8053 15.9361 40.2781 15.9361C40.751 15.9361 41.2044 16.1239 41.5388 16.4583C41.8731 16.7926 42.061 17.2461 42.061 17.7189C42.061 18.1917 41.8731 18.6452 41.5388 18.9795Z" fill="#404040"/>
<path d="M41.6844 35.2969C40.7523 35.2958 39.8587 34.9251 39.1996 34.266C38.5405 33.6069 38.1698 32.7133 38.1688 31.7812C38.1688 31.5948 38.0947 31.4159 37.9628 31.2841C37.831 31.1522 37.6521 31.0781 37.4656 31.0781C37.2792 31.0781 37.1003 31.1522 36.9685 31.2841C36.8366 31.4159 36.7625 31.5948 36.7625 31.7812C36.7615 32.7133 36.3907 33.6069 35.7316 34.266C35.0726 34.9251 34.179 35.2958 33.2469 35.2969C33.0604 35.2969 32.8816 35.371 32.7497 35.5028C32.6178 35.6347 32.5438 35.8135 32.5438 36C32.5438 36.1865 32.6178 36.3653 32.7497 36.4972C32.8816 36.629 33.0604 36.7031 33.2469 36.7031C34.179 36.7042 35.0726 37.0749 35.7316 37.734C36.3907 38.3931 36.7615 39.2867 36.7625 40.2188C36.7625 40.4052 36.8366 40.5841 36.9685 40.7159C37.1003 40.8478 37.2792 40.9219 37.4656 40.9219C37.6521 40.9219 37.831 40.8478 37.9628 40.7159C38.0947 40.5841 38.1688 40.4052 38.1688 40.2188C38.1698 39.2867 38.5405 38.3931 39.1996 37.734C39.8587 37.0749 40.7523 36.7042 41.6844 36.7031C41.8709 36.7031 42.0497 36.629 42.1816 36.4972C42.3134 36.3653 42.3875 36.1865 42.3875 36C42.3875 35.8135 42.3134 35.6347 42.1816 35.5028C42.0497 35.371 41.8709 35.2969 41.6844 35.2969ZM37.4656 37.6858C37.0491 36.9952 36.4705 36.4166 35.7799 36C36.4705 35.5834 37.0491 35.0048 37.4656 34.3142C37.8822 35.0048 38.4608 35.5834 39.1514 36C38.4608 36.4166 37.8822 36.9952 37.4656 37.6858Z" fill="#404040"/>
<path d="M43.0906 5.0625C42.345 5.06166 41.6301 4.76508 41.1028 4.23781C40.5756 3.71055 40.279 2.99566 40.2781 2.25C40.2781 2.06352 40.2041 1.88468 40.0722 1.75282C39.9403 1.62095 39.7615 1.54688 39.575 1.54688C39.3885 1.54688 39.2097 1.62095 39.0778 1.75282C38.946 1.88468 38.8719 2.06352 38.8719 2.25C38.871 2.99566 38.5745 3.71055 38.0472 4.23781C37.5199 4.76508 36.8051 5.06166 36.0594 5.0625C35.8729 5.0625 35.6941 5.13658 35.5622 5.26844C35.4303 5.4003 35.3563 5.57914 35.3563 5.76562C35.3563 5.95211 35.4303 6.13095 35.5622 6.26281C35.6941 6.39467 35.8729 6.46875 36.0594 6.46875C36.8051 6.46959 37.5199 6.76617 38.0472 7.29344C38.5745 7.8207 38.871 8.53559 38.8719 9.28125C38.8719 9.46773 38.946 9.64657 39.0778 9.77843C39.2097 9.9103 39.3885 9.98438 39.575 9.98438C39.7615 9.98438 39.9403 9.9103 40.0722 9.77843C40.2041 9.64657 40.2781 9.46773 40.2781 9.28125C40.279 8.53559 40.5756 7.8207 41.1028 7.29344C41.6301 6.76617 42.345 6.46959 43.0906 6.46875C43.2771 6.46875 43.456 6.39467 43.5878 6.26281C43.7197 6.13095 43.7938 5.95211 43.7938 5.76562C43.7938 5.57914 43.7197 5.4003 43.5878 5.26844C43.456 5.13658 43.2771 5.0625 43.0906 5.0625ZM39.575 6.95151C39.2623 6.48142 38.8592 6.07829 38.3891 5.76562C38.8592 5.45296 39.2623 5.04983 39.575 4.57975C39.8877 5.04983 40.2908 5.45296 40.7609 5.76562C40.2908 6.07829 39.8877 6.48142 39.575 6.95151Z" fill="#404040"/>
<path d="M5.82501 19.125C5.82501 19.3115 5.89909 19.4903 6.03095 19.6222C6.16281 19.754 6.34166 19.8281 6.52814 19.8281C6.71462 19.8281 6.89346 19.754 7.02532 19.6222C7.15718 19.4903 7.23126 19.3115 7.23126 19.125C7.23231 18.1929 7.60305 17.2993 8.26213 16.6402C8.92121 15.9812 9.81481 15.6104 10.7469 15.6094C10.9334 15.6094 11.1122 15.5353 11.2441 15.4034C11.3759 15.2716 11.45 15.0927 11.45 14.9063C11.45 14.7198 11.3759 14.5409 11.2441 14.4091C11.1122 14.2772 10.9334 14.2031 10.7469 14.2031C9.81481 14.2021 8.92121 13.8313 8.26213 13.1723C7.60305 12.5132 7.23231 11.6196 7.23126 10.6875C7.23126 10.501 7.15718 10.3222 7.02532 10.1903C6.89346 10.0585 6.71462 9.98438 6.52814 9.98438C6.34166 9.98438 6.16281 10.0585 6.03095 10.1903C5.89909 10.3222 5.82501 10.501 5.82501 10.6875C5.82396 11.6196 5.45323 12.5132 4.79415 13.1723C4.13507 13.8313 3.24147 14.2021 2.30939 14.2031C2.12291 14.2031 1.94406 14.2772 1.8122 14.4091C1.68034 14.5409 1.60626 14.7198 1.60626 14.9063C1.60626 15.0927 1.68034 15.2716 1.8122 15.4034C1.94406 15.5353 2.12291 15.6094 2.30939 15.6094C3.24147 15.6104 4.13507 15.9812 4.79415 16.6402C5.45323 17.2993 5.82396 18.1929 5.82501 19.125ZM6.52814 13.2205C6.9447 13.9111 7.52332 14.4897 8.2139 14.9063C7.52332 15.3228 6.9447 15.9014 6.52814 16.592C6.11158 15.9014 5.53295 15.3228 4.84238 14.9063C5.53295 14.4897 6.11158 13.9111 6.52814 13.2205Z" fill="#404040"/>
</svg>
