<svg width="49" height="50" viewBox="0 0 49 50" fill="none" xmlns="http://www.w3.org/2000/svg">
<g clip-path="url(#clip0_18_1255)">
<path d="M24.4999 0.151367C10.9691 0.151367 -6.10352e-05 11.1205 -6.10352e-05 24.6514C-6.10352e-05 38.1822 10.9691 49.1514 24.4999 49.1514C38.0308 49.1514 48.9999 38.1822 48.9999 24.6514C48.9848 11.1269 38.0244 0.16652 24.4999 0.151367ZM24.4999 47.518C11.8711 47.518 1.63327 37.2802 1.63327 24.6514C1.63327 12.0225 11.8711 1.7847 24.4999 1.7847C37.1288 1.7847 47.3666 12.0225 47.3666 24.6514C47.3522 37.2742 37.1228 47.5037 24.4999 47.518Z" fill="#404040"/>
<path d="M13.1416 23.0995C13.197 23.1107 13.2536 23.1167 13.3099 23.1167C13.6959 23.1159 14.0288 22.8451 14.1078 22.4675C14.2103 21.9834 14.3466 21.5077 14.5161 21.0431C14.6194 20.768 14.5668 20.4585 14.3785 20.2328C14.1903 20.0071 13.8952 19.9003 13.6061 19.9525C13.3166 20.0051 13.0782 20.2089 12.9809 20.486C12.7867 21.0232 12.63 21.5735 12.5127 22.1325C12.4202 22.5732 12.7013 23.0054 13.1416 23.0995Z" fill="#404040"/>
<path d="M15.2323 18.771C15.4947 18.7714 15.7407 18.6462 15.8946 18.4341C16.1853 18.0333 16.5028 17.6533 16.8453 17.2964C17.1575 16.971 17.1472 16.4538 16.8218 16.1416C16.4964 15.8293 15.9792 15.8397 15.6669 16.1651C15.2722 16.5746 14.9065 17.0113 14.5727 17.4718C14.3925 17.7203 14.3666 18.0485 14.5057 18.3216C14.6449 18.5952 14.9256 18.7674 15.2323 18.7678V18.771Z" fill="#404040"/>
<path d="M18.7569 15.5811C18.9005 15.5807 19.0417 15.5424 19.1653 15.4698C19.5908 15.2206 20.0338 15.0021 20.4908 14.8166C20.9091 14.6468 21.1101 14.1699 20.9402 13.7515C20.7699 13.3336 20.2934 13.1327 19.8751 13.3025C19.3475 13.5179 18.8351 13.7699 18.3422 14.0562C18.0232 14.2416 17.8677 14.6177 17.9634 14.9742C18.0587 15.3307 18.3817 15.5787 18.7506 15.5795L18.7569 15.5811Z" fill="#404040"/>
<path d="M36.2706 21.2913C36.2658 21.2698 36.2706 21.2495 36.2646 21.2283C36.2503 21.1761 36.2295 21.1247 36.2144 21.0724C36.1988 21.0202 36.1749 20.9556 36.1562 20.8966C36.0573 20.5911 35.9464 20.2893 35.824 19.9902C35.8017 19.9364 35.7805 19.8817 35.7578 19.8267C35.7283 19.7589 35.7048 19.6895 35.6761 19.6225C35.6617 19.6002 35.6461 19.5787 35.6294 19.5583C35.1732 18.5582 34.5846 17.6243 33.8792 16.7813C33.8697 16.7686 33.8673 16.7522 33.8565 16.7391C33.4884 16.3052 33.0909 15.8973 32.6666 15.5181C32.6403 15.5009 32.6132 15.485 32.5848 15.4706C31.7746 14.7564 30.8734 14.1523 29.9048 13.6742C29.8828 13.6546 29.8597 13.6371 29.8354 13.6211C29.6783 13.545 29.5168 13.4788 29.3557 13.4094C29.3094 13.3891 29.2635 13.3671 29.2161 13.3476C28.8967 13.2144 28.5753 13.0904 28.2475 12.9855C28.2387 12.9855 28.2304 12.9855 28.2216 12.9855C27.1657 12.6529 26.0695 12.4651 24.9629 12.428C24.9378 12.428 24.9162 12.4117 24.8911 12.4109C24.8094 12.4109 24.722 12.4109 24.6387 12.4109C24.592 12.4109 24.5474 12.4033 24.5007 12.4033C24.4876 12.4033 24.4772 12.4101 24.464 12.4109C24.037 12.4097 23.6099 12.4304 23.1852 12.4735C22.7553 12.5206 22.4367 12.8946 22.4587 13.3265C22.4802 13.7579 22.8343 14.0981 23.267 14.1021C23.2961 14.1021 23.3252 14.1005 23.3543 14.0973C23.7714 14.055 24.1909 14.0367 24.61 14.0422C25.9789 14.0534 27.3319 14.3309 28.5948 14.8589L28.6837 14.8984C29.8226 15.3916 30.8666 16.0799 31.7682 16.9325C31.9887 17.1402 32.1976 17.3572 32.3986 17.586C33.1718 18.4426 33.8003 19.4192 34.2593 20.4779C34.2772 20.5185 34.2927 20.5596 34.3099 20.6011C34.4188 20.8619 34.5161 21.1279 34.6022 21.399C34.6185 21.4497 34.6365 21.5003 34.652 21.5509C34.9599 22.5554 35.1166 23.6002 35.1166 24.6509C35.1166 24.9775 35.0963 25.2993 35.0675 25.6179C35.0604 25.6997 35.0512 25.781 35.0424 25.8628C34.7302 28.5803 33.3796 31.0722 31.2733 32.8176L31.2302 32.8543C30.1823 33.7164 28.9788 34.3692 27.6848 34.7775C27.6482 34.7891 27.6099 34.7986 27.5732 34.8094C27.3044 34.8912 27.0309 34.9605 26.7565 35.0212L26.554 35.0642C20.8855 36.1879 15.3627 32.5616 14.1405 26.9139L15.9684 27.8358C16.3719 28.0376 16.8624 27.8737 17.0642 27.4702C17.266 27.0662 17.1021 26.5758 16.6981 26.374L13.4315 24.7406C13.3206 24.6864 13.1986 24.6585 13.0746 24.6589C13.063 24.6553 13.051 24.6525 13.0387 24.6509C13.0152 24.6561 12.9916 24.6629 12.9685 24.6705C12.884 24.6792 12.801 24.7016 12.7237 24.7367C12.5566 24.81 12.4194 24.9376 12.3349 25.0991L10.7015 28.3658C10.4998 28.7697 10.6637 29.2602 11.0672 29.462C11.4711 29.6634 11.9616 29.4999 12.1634 29.0959L12.7213 27.9806C12.9529 28.8012 13.2716 29.5952 13.6719 30.3488C13.6775 30.3716 13.6843 30.3939 13.6923 30.4158C13.9606 30.9191 14.2641 31.4024 14.6002 31.8629C14.6206 31.8909 14.6525 31.902 14.6756 31.9268C15.3104 32.7753 16.0513 33.5393 16.8804 34.1993C16.9083 34.2388 16.9398 34.2755 16.9745 34.309C17.4227 34.6615 17.8952 34.9817 18.3889 35.2676C18.4495 35.3031 18.5145 35.3306 18.5823 35.3493C19.4943 35.8574 20.4676 36.247 21.4781 36.5081C21.502 36.5213 21.5268 36.5329 21.5519 36.5432C22.1058 36.68 22.6684 36.7781 23.2358 36.8363H23.3172C23.7084 36.8758 24.104 36.8977 24.5039 36.8977C25.1694 36.8933 25.8334 36.8343 26.4894 36.7219H26.4993C26.5472 36.7223 26.595 36.7179 26.6421 36.7091C26.7131 36.6968 26.7824 36.678 26.8534 36.6641C26.9443 36.6469 27.0333 36.6266 27.123 36.607C27.4324 36.54 27.7375 36.4611 28.0385 36.371C28.086 36.357 28.1343 36.3454 28.1805 36.3307C28.2272 36.3163 28.2623 36.3088 28.2997 36.2964C28.3185 36.29 28.3308 36.2761 28.348 36.2689C29.4019 35.922 30.4036 35.4327 31.3256 34.815C31.3371 34.8078 31.3495 34.8062 31.3606 34.7986C31.6737 34.5873 31.9739 34.3544 32.2682 34.1136C32.287 34.098 32.3049 34.0817 32.3245 34.0661C32.4517 33.96 32.5817 33.8572 32.7041 33.7471C32.726 33.7212 32.7459 33.6941 32.7639 33.6654C33.5495 32.9472 34.2385 32.1301 34.8143 31.2349C34.8442 31.2034 34.8714 31.1699 34.8961 31.1344C35.1979 30.6511 35.4659 30.1475 35.698 29.6267C35.7064 29.6087 35.704 29.59 35.7104 29.5721C36.1502 28.5704 36.4524 27.5132 36.6088 26.4306C36.6191 26.4039 36.6283 26.3764 36.6355 26.3489C36.6494 26.25 36.6558 26.1495 36.6674 26.0498C36.6789 25.9501 36.6885 25.854 36.6977 25.7559C36.7312 25.3866 36.7539 25.0158 36.7539 24.6453V24.5979C36.7539 24.5931 36.7539 24.5879 36.7539 24.5823C36.7435 23.4682 36.5812 22.3608 36.2706 21.2913Z" fill="#404040"/>
<path d="M24.4999 17.3018C24.0489 17.3018 23.6833 17.6674 23.6833 18.1184V24.6518C23.6833 24.8683 23.7694 25.076 23.9225 25.2292L27.1892 28.4958C27.5098 28.8053 28.019 28.8009 28.334 28.4859C28.6491 28.1708 28.6534 27.6616 28.344 27.341L25.3166 24.3136V18.1184C25.3166 17.6674 24.9509 17.3018 24.4999 17.3018Z" fill="#404040"/>
</g>
<defs>
<clipPath id="clip0_18_1255">
<rect width="49" height="49" fill="white" transform="translate(-6.10352e-05 0.151367)"/>
</clipPath>
</defs>
</svg>
