<svg width="46" height="46" viewBox="0 0 46 46" fill="none" xmlns="http://www.w3.org/2000/svg">
<g clip-path="url(#clip0_18_1271)">
<path d="M39.2497 36.3271C37.9666 36.3271 36.9228 37.3709 36.9228 38.6541C36.9228 39.9371 37.9666 40.9809 39.2497 40.9809C40.5327 40.9809 41.5765 39.9371 41.5765 38.6541C41.5765 37.371 40.5327 36.3271 39.2497 36.3271ZM39.2496 39.6019C38.727 39.6019 38.3018 39.1767 38.3018 38.6541C38.3018 38.1315 38.727 37.7062 39.2496 37.7062C39.7722 37.7062 40.1974 38.1315 40.1974 38.6541C40.1974 39.1767 39.7722 39.6019 39.2496 39.6019Z" fill="#404040"/>
<path d="M45.5189 38.533C45.475 36.8294 44.7539 35.2625 43.4885 34.1211L29.606 21.5997L41.8806 9.3251C41.9613 9.30101 42.041 9.27104 42.1179 9.23044L44.776 7.82753C45.1432 7.63364 45.3895 7.28683 45.4514 6.87629C45.5135 6.46566 45.3807 6.06172 45.087 5.76781L42.0942 2.77505C41.8004 2.48141 41.3968 2.3486 40.9858 2.41065C40.5753 2.47262 40.2285 2.71889 40.0346 3.08618L38.6316 5.74408C38.5906 5.82169 38.5591 5.90193 38.535 5.98341L32.7412 11.7772C32.4719 12.0465 32.4719 12.483 32.7412 12.7524C33.0106 13.0215 33.4471 13.0215 33.7164 12.7524L39.0331 7.43562L40.4265 8.82895L26.8298 22.4256L25.4364 21.0323L31.3713 15.0976C31.6406 14.8282 31.6406 14.3917 31.3713 14.1223C31.1019 13.8532 30.6654 13.8532 30.396 14.1223L26.0899 18.4285L21.4034 14.2014C22.7321 10.3768 21.7699 6.12157 18.8875 3.23929C15.9352 0.286954 11.5062 -0.653915 7.60405 0.842598C7.386 0.92627 7.22507 1.11453 7.17655 1.34296C7.12804 1.57139 7.19826 1.80887 7.36341 1.97401L12.7768 7.38746C12.9369 7.5476 13.0252 7.76056 13.0252 7.98705C13.0252 8.21354 12.937 8.4265 12.7768 8.58673L9.26123 12.1023C9.10109 12.2625 8.88813 12.3507 8.66164 12.3507C8.43515 12.3507 8.22219 12.2626 8.06196 12.1023L2.64851 6.68882C2.48328 6.52367 2.24598 6.45345 2.01746 6.50196C1.78903 6.55057 1.60077 6.71141 1.5171 6.92946C0.0205852 10.8315 0.961455 15.2604 3.91388 18.2129C6.72559 21.0246 10.8984 22.0145 14.6628 20.7982L18.2863 24.7605C18.1122 25.1008 17.8858 25.418 17.6065 25.6973C16.562 26.7418 14.9966 27.0708 13.6181 26.5357C13.3633 26.4366 13.0742 26.4976 12.8808 26.6909L4.43814 35.1336C2.15264 37.4192 2.15264 41.138 4.43814 43.4234C5.54548 44.5309 7.01756 45.1406 8.58333 45.1406C10.149 45.1406 11.6212 44.5309 12.7283 43.4238L21.171 34.9812C21.3642 34.7879 21.4251 34.4987 21.3262 34.2439C20.791 32.8655 21.12 31.2999 22.1645 30.2554C23.2091 29.2109 24.7746 28.8818 26.1531 29.4169C26.4081 29.516 26.697 29.4549 26.8903 29.2618L28.4829 27.6692C28.9624 27.1897 29.2265 26.552 29.2265 25.8739C29.2265 25.1959 28.9624 24.5582 28.4829 24.0787L27.805 23.4008L28.6297 22.5761L42.5649 35.1451C43.5468 36.0308 44.1064 37.2466 44.1404 38.5685C44.1745 39.8904 43.6782 41.1334 42.7432 42.0684C41.8126 42.9992 40.5727 43.4945 39.2595 43.4661C37.9437 43.4368 36.7299 42.8857 35.8418 41.9144L25.4805 30.584C25.2232 30.3028 24.7873 30.2835 24.5063 30.5405C24.2253 30.7976 24.2058 31.2337 24.4628 31.5147L34.824 42.8451C35.9687 44.0967 37.533 44.8069 39.2287 44.8448C39.2761 44.8458 39.3235 44.8464 39.3709 44.8464C41.0134 44.8464 42.5524 44.2092 43.7183 43.0435C44.9233 41.8385 45.5627 40.2366 45.5189 38.533ZM39.8804 6.33251L41.2004 3.83167L44.0304 6.66166L41.5296 7.98169L39.8804 6.33251ZM15.3743 19.5327C15.1844 19.3253 14.8879 19.2537 14.6244 19.352C11.2527 20.6097 7.431 19.7799 4.88893 17.2381C2.58075 14.9298 1.68638 11.5834 2.47449 8.46526L7.08673 13.0775C7.50746 13.4981 8.06671 13.7297 8.66155 13.7297C9.2564 13.7297 9.81564 13.4981 10.2363 13.0775L13.7518 9.56196C14.1725 9.14123 14.4041 8.58198 14.4041 7.98714C14.4041 7.39229 14.1725 6.83305 13.7518 6.4124L9.13968 1.79999C12.2576 1.01152 15.6043 1.90616 17.9124 4.21443C20.5191 6.82101 21.3202 10.7186 19.9534 14.1441C19.8464 14.4121 19.9176 14.7184 20.132 14.9117L25.1135 19.4048L24.4612 20.0572L23.7833 19.3793C23.3038 18.8997 22.6661 18.6357 21.9881 18.6357C21.31 18.6357 20.6723 18.8997 20.1928 19.3793L18.6002 20.9718C18.407 21.1651 18.3461 21.4543 18.4451 21.7091C18.6285 22.1815 18.7081 22.6756 18.6944 23.1635L15.3743 19.5327ZM27.5076 26.694L26.2172 27.9845C24.4425 27.4729 22.5114 27.9583 21.1894 29.2801H21.1893C19.8674 30.6021 19.382 32.533 19.8938 34.308L11.7532 42.4484C10.9065 43.2952 9.78075 43.7615 8.58342 43.7615C7.38608 43.7615 6.2602 43.2952 5.41364 42.4484C3.66576 40.7006 3.66576 37.8567 5.41364 36.1088L13.5542 27.9683C15.329 28.4802 17.2599 27.9945 18.5819 26.6726C19.9038 25.3506 20.3893 23.4198 19.8775 21.6448L21.168 20.3544C21.6201 19.9021 22.3561 19.9021 22.8082 20.3544L23.9737 21.5199L26.3421 23.8883L27.5076 25.0538C27.9599 25.5061 27.9599 26.2419 27.5076 26.694Z" fill="#404040"/>
<path d="M14.935 30.573C14.6656 30.3038 14.2292 30.3038 13.9598 30.573L7.42793 37.1049C7.15864 37.3742 7.15864 37.8107 7.42793 38.0801C7.56258 38.2147 7.73915 38.282 7.91555 38.282C8.09195 38.282 8.26852 38.2147 8.40317 38.0801L14.935 31.5482C15.2042 31.2789 15.2042 30.8423 14.935 30.573Z" fill="#404040"/>
<path d="M17.3484 32.9861C17.0791 32.7169 16.6426 32.7169 16.3732 32.9861L9.84132 39.5179C9.57203 39.7872 9.57203 40.2237 9.84132 40.4931C9.97597 40.6276 10.1525 40.695 10.3289 40.695C10.5053 40.695 10.6819 40.6276 10.8166 40.4931L17.3484 33.9613C17.6177 33.6919 17.6177 33.2555 17.3484 32.9861Z" fill="#404040"/>
</g>
<defs>
<clipPath id="clip0_18_1271">
<rect width="45" height="45" fill="white" transform="translate(0.668091 0.140625)"/>
</clipPath>
</defs>
</svg>
