<svg width="15" height="15" viewBox="0 0 15 15" fill="none" xmlns="http://www.w3.org/2000/svg">
<g clip-path="url(#clip0_18_455)">
<path d="M14.4088 5.33477C14.2488 5.15519 14.0302 5.03839 13.7919 5.00523V5.00473L10.0712 4.49075L8.59881 0.972493C8.38381 0.457518 7.79206 0.214341 7.27711 0.429336C7.03162 0.531839 6.83643 0.727002 6.73395 0.972493L5.26156 4.49075L1.54082 5.00473C0.98647 5.08189 0.599631 5.59388 0.676794 6.14823C0.709956 6.38645 0.826754 6.60511 1.00633 6.76512L3.80965 9.26494L3.23365 13.1876C3.17125 13.586 3.3542 13.9828 3.69762 14.1941C4.03622 14.4106 4.47174 14.4025 4.80204 14.1736L7.66635 12.2257L10.5307 14.1756C10.9928 14.4892 11.6218 14.3689 11.9356 13.9067C12.0781 13.6966 12.1365 13.4407 12.0991 13.1896L11.5231 9.26541L14.3264 6.76559C14.7443 6.39325 14.7812 5.75263 14.4088 5.33477ZM10.6562 8.70046C10.5307 8.81251 10.4701 8.98008 10.4947 9.14644L11.0946 13.3462L7.94884 11.2073C7.77925 11.0921 7.55647 11.0921 7.38688 11.2073L4.22259 13.3332L4.83805 9.14445C4.86195 8.97876 4.80131 8.8121 4.67654 8.70049L1.67675 5.99666L5.68048 5.44418C5.85578 5.42001 6.00521 5.30497 6.07344 5.14171L7.67233 1.35098C7.67414 1.35321 7.67549 1.35576 7.67634 1.35848L9.25873 5.13972C9.32696 5.30298 9.47642 5.41802 9.6517 5.44219L13.6604 6.01915L10.6562 8.70046Z" fill="#FFA800"/>
</g>
<defs>
<clipPath id="clip0_18_455">
<rect width="14" height="14" fill="white" transform="translate(0.665771 0.351074)"/>
</clipPath>
</defs>
</svg>
