<svg width="15" height="15" viewBox="0 0 15 15" fill="none" xmlns="http://www.w3.org/2000/svg">
<g clip-path="url(#clip0_18_415)">
<path d="M14.0381 5.86515C13.9459 5.58167 13.6945 5.38097 13.3982 5.35416L9.35679 4.98725L7.75961 1.24793C7.64169 0.973209 7.37338 0.795898 7.07473 0.795898C6.77608 0.795898 6.50765 0.973209 6.39048 1.24793L4.7933 4.98725L0.751271 5.35416C0.454971 5.3815 0.204066 5.5822 0.111352 5.86515C0.0191726 6.14863 0.104303 6.45957 0.328397 6.6561L3.38336 9.33487L2.48261 13.3021C2.4167 13.5938 2.52993 13.8955 2.77197 14.0704C2.90206 14.165 3.05491 14.2122 3.2083 14.2122C3.34011 14.2122 3.47202 14.1771 3.58983 14.1067L7.07473 12.0229L10.559 14.1067C10.8146 14.2594 11.136 14.2454 11.3775 14.0704C11.6195 13.8955 11.7327 13.5938 11.6668 13.3021L10.7661 9.33487L13.8211 6.6561C14.045 6.45957 14.1303 6.14927 14.0381 5.86515Z" fill="#FFA800"/>
</g>
<defs>
<clipPath id="clip0_18_415">
<rect width="14" height="14" fill="white" transform="translate(0.074707 0.495117)"/>
</clipPath>
</defs>
</svg>
